<mxfile host="app.diagrams.net" modified="2023-10-15T05:04:46.773Z" agent="Mozilla/5.0 (Macintosh; Intel Mac OS X 10_15_7) AppleWebKit/537.36 (KHTML, like Gecko) Chrome/117.0.0.0 Safari/537.36" version="22.0.4" etag="XaM7dA5oY4NhovMbR0IS" type="github">
  <diagram name="Page-1" id="FFGxTuS5a4S70jSqpJ1I">
    <mxGraphModel>
      <root>
        <mxCell id="0" />
        <mxCell id="1" parent="0" />
      </root>
    </mxGraphModel>
  </diagram>
</mxfile>
